<mxfile host="app.diagrams.net" modified="2022-11-27T10:09:48.966Z" agent="5.0 (Macintosh; Intel Mac OS X 10_15_7) AppleWebKit/537.36 (KHTML, like Gecko) Chrome/107.0.0.0 Safari/537.36" version="20.6.0" etag="5zvG7rWPk9_3ORpIzXJc" type="github">
  <diagram id="yTaxO6LfOMH5-83tw_-i" name="페이지-1">
    <mxGraphModel dx="954" dy="620" grid="1" gridSize="10" guides="1" tooltips="1" connect="1" arrows="0" fold="1" page="1" pageScale="1" pageWidth="827" pageHeight="1169" math="0" shadow="0">
      <root>
        <mxCell id="0" />
        <mxCell id="1" parent="0" />
        <mxCell id="si2Phqth5tI7mLcc3Ihn-1" value="이용자" style="shape=umlActor;verticalLabelPosition=bottom;verticalAlign=top;html=1;outlineConnect=0;" vertex="1" parent="1">
          <mxGeometry x="50" y="180" width="30" height="60" as="geometry" />
        </mxCell>
        <mxCell id="si2Phqth5tI7mLcc3Ihn-2" value="게시판&lt;br&gt;서비스" style="shape=umlFrame;whiteSpace=wrap;html=1;" vertex="1" parent="1">
          <mxGeometry x="120" y="50" width="600" height="580" as="geometry" />
        </mxCell>
        <mxCell id="si2Phqth5tI7mLcc3Ihn-3" value="회원 가입" style="rounded=1;whiteSpace=wrap;html=1;arcSize=40;fontColor=#000000;fillColor=#ffffc0;strokeColor=#ff0000;" vertex="1" parent="si2Phqth5tI7mLcc3Ihn-2">
          <mxGeometry x="54.54545454545454" y="129.99714285714288" width="144" height="41.42857142857143" as="geometry" />
        </mxCell>
        <mxCell id="si2Phqth5tI7mLcc3Ihn-5" value="게시판 보기" style="rounded=1;whiteSpace=wrap;html=1;arcSize=40;fontColor=#000000;fillColor=#ffffc0;strokeColor=#ff0000;" vertex="1" parent="si2Phqth5tI7mLcc3Ihn-2">
          <mxGeometry x="54.54545454545454" y="270.0028571428571" width="144" height="41.42857142857143" as="geometry" />
        </mxCell>
        <mxCell id="si2Phqth5tI7mLcc3Ihn-6" value="게시글 보기" style="rounded=1;whiteSpace=wrap;html=1;arcSize=40;fontColor=#000000;fillColor=#ffffc0;strokeColor=#ff0000;" vertex="1" parent="si2Phqth5tI7mLcc3Ihn-2">
          <mxGeometry x="54.54545454545454" y="420.0028571428571" width="144" height="41.42857142857143" as="geometry" />
        </mxCell>
        <mxCell id="si2Phqth5tI7mLcc3Ihn-30" value="&amp;lt;include&amp;gt;" style="edgeStyle=none;rounded=0;orthogonalLoop=1;jettySize=auto;html=1;exitX=1;exitY=0.5;exitDx=0;exitDy=0;dashed=1;endArrow=classic;endFill=1;" edge="1" parent="si2Phqth5tI7mLcc3Ihn-2" source="si2Phqth5tI7mLcc3Ihn-11" target="si2Phqth5tI7mLcc3Ihn-12">
          <mxGeometry relative="1" as="geometry" />
        </mxCell>
        <mxCell id="si2Phqth5tI7mLcc3Ihn-11" value="회원 로그인" style="rounded=1;whiteSpace=wrap;html=1;arcSize=40;fontColor=#000000;fillColor=#ffffc0;strokeColor=#ff0000;" vertex="1" parent="si2Phqth5tI7mLcc3Ihn-2">
          <mxGeometry x="198.54181818181814" y="31.071428571428573" width="144" height="41.42857142857143" as="geometry" />
        </mxCell>
        <mxCell id="si2Phqth5tI7mLcc3Ihn-12" value="인증" style="rounded=1;whiteSpace=wrap;html=1;arcSize=40;fontColor=#000000;fillColor=#ffffc0;strokeColor=#ff0000;" vertex="1" parent="si2Phqth5tI7mLcc3Ihn-2">
          <mxGeometry x="425.45454545454544" y="31.071428571428555" width="144" height="41.42857142857143" as="geometry" />
        </mxCell>
        <mxCell id="si2Phqth5tI7mLcc3Ihn-29" style="edgeStyle=none;rounded=0;orthogonalLoop=1;jettySize=auto;html=1;exitX=0;exitY=0.5;exitDx=0;exitDy=0;entryX=1;entryY=0.5;entryDx=0;entryDy=0;endArrow=none;endFill=0;" edge="1" parent="si2Phqth5tI7mLcc3Ihn-2" source="si2Phqth5tI7mLcc3Ihn-13" target="si2Phqth5tI7mLcc3Ihn-11">
          <mxGeometry relative="1" as="geometry" />
        </mxCell>
        <mxCell id="si2Phqth5tI7mLcc3Ihn-13" value="로그인 실패" style="rounded=1;whiteSpace=wrap;html=1;arcSize=40;fontColor=#000000;fillColor=#ffffc0;strokeColor=#ff0000;" vertex="1" parent="si2Phqth5tI7mLcc3Ihn-2">
          <mxGeometry x="425.45454545454544" y="120.00142857142855" width="144" height="41.42857142857143" as="geometry" />
        </mxCell>
        <mxCell id="si2Phqth5tI7mLcc3Ihn-14" value="게시판 정렬" style="rounded=1;whiteSpace=wrap;html=1;arcSize=40;fontColor=#000000;fillColor=#ffffc0;strokeColor=#ff0000;" vertex="1" parent="si2Phqth5tI7mLcc3Ihn-2">
          <mxGeometry x="272.7272727272727" y="270.0028571428571" width="144" height="41.42857142857143" as="geometry" />
        </mxCell>
        <mxCell id="si2Phqth5tI7mLcc3Ihn-15" value="게시판 검색" style="rounded=1;whiteSpace=wrap;html=1;arcSize=40;fontColor=#000000;fillColor=#ffffc0;strokeColor=#ff0000;" vertex="1" parent="si2Phqth5tI7mLcc3Ihn-2">
          <mxGeometry x="272.7272727272727" y="325.72285714285715" width="144" height="41.42857142857143" as="geometry" />
        </mxCell>
        <mxCell id="si2Phqth5tI7mLcc3Ihn-16" value="게시글 쓰기, 수정, 삭제" style="rounded=1;whiteSpace=wrap;html=1;arcSize=40;fontColor=#000000;fillColor=#ffffc0;strokeColor=#ff0000;" vertex="1" parent="si2Phqth5tI7mLcc3Ihn-2">
          <mxGeometry x="261.8181818181818" y="470.0028571428571" width="144" height="41.42857142857143" as="geometry" />
        </mxCell>
        <mxCell id="si2Phqth5tI7mLcc3Ihn-17" value="댓글 보기, 쓰기,&lt;br&gt;수정, 삭제" style="rounded=1;whiteSpace=wrap;html=1;arcSize=40;fontColor=#000000;fillColor=#ffffc0;strokeColor=#ff0000;" vertex="1" parent="si2Phqth5tI7mLcc3Ihn-2">
          <mxGeometry x="261.8181818181818" y="530.0028571428571" width="144" height="41.42857142857143" as="geometry" />
        </mxCell>
        <mxCell id="si2Phqth5tI7mLcc3Ihn-21" style="rounded=0;orthogonalLoop=1;jettySize=auto;html=1;exitX=0;exitY=0.5;exitDx=0;exitDy=0;endArrow=none;endFill=0;entryX=1;entryY=0.3333333333333333;entryDx=0;entryDy=0;entryPerimeter=0;" edge="1" parent="1" source="si2Phqth5tI7mLcc3Ihn-3" target="si2Phqth5tI7mLcc3Ihn-1">
          <mxGeometry relative="1" as="geometry">
            <mxPoint x="90" y="200" as="targetPoint" />
          </mxGeometry>
        </mxCell>
        <mxCell id="si2Phqth5tI7mLcc3Ihn-23" style="edgeStyle=none;rounded=0;orthogonalLoop=1;jettySize=auto;html=1;exitX=0;exitY=0.5;exitDx=0;exitDy=0;endArrow=none;endFill=0;entryX=1;entryY=0.3333333333333333;entryDx=0;entryDy=0;entryPerimeter=0;" edge="1" parent="1" source="si2Phqth5tI7mLcc3Ihn-11" target="si2Phqth5tI7mLcc3Ihn-1">
          <mxGeometry relative="1" as="geometry">
            <mxPoint x="80" y="180" as="targetPoint" />
          </mxGeometry>
        </mxCell>
        <mxCell id="si2Phqth5tI7mLcc3Ihn-25" style="edgeStyle=none;rounded=0;orthogonalLoop=1;jettySize=auto;html=1;exitX=0;exitY=0.5;exitDx=0;exitDy=0;endArrow=none;endFill=0;entryX=1;entryY=0.3333333333333333;entryDx=0;entryDy=0;entryPerimeter=0;" edge="1" parent="1" source="si2Phqth5tI7mLcc3Ihn-5" target="si2Phqth5tI7mLcc3Ihn-1">
          <mxGeometry relative="1" as="geometry">
            <mxPoint x="90" y="200" as="targetPoint" />
          </mxGeometry>
        </mxCell>
        <mxCell id="si2Phqth5tI7mLcc3Ihn-27" style="edgeStyle=none;rounded=0;orthogonalLoop=1;jettySize=auto;html=1;exitX=0;exitY=0.5;exitDx=0;exitDy=0;endArrow=none;endFill=0;" edge="1" parent="1" source="si2Phqth5tI7mLcc3Ihn-6">
          <mxGeometry relative="1" as="geometry">
            <mxPoint x="80" y="200" as="targetPoint" />
          </mxGeometry>
        </mxCell>
      </root>
    </mxGraphModel>
  </diagram>
</mxfile>
